# xmcd
#
# Track frame offsets:
#	150
#	12305
#	29640
#	45167
#	65660
#	76445
#	86665
#	108945
#	124347
#	138960
#	157382
#	174935
#	185430
#	200462
#
# Disc length: 2843 seconds
#
# Revision: 0
# Processed by: cddbd v1.4b42PL1 Copyright (c) Steve Scherf et al.
# Submitted via: audiograbber 1.80
#
DISCID=bd0b190e
DTITLE=Guitar - Romantic guitar II
DYEAR=1900
DGENRE=
TTITLE0=Smoke gets in your eyes
TTITLE1=Unforgettable
TTITLE2=Tonight I celebrate my love
TTITLE3=From the distant
TTITLE4=What a wonderfull world
TTITLE5=Early shell
TTITLE6=Sometimes when we touch
TTITLE7=I'll never been to me
TTITLE8=I don't like to sleep alone
TTITLE9=Will you still love me
TTITLE10=Daniel
TTITLE11=You mean everything to me
TTITLE12=Maria elena
TTITLE13=Baby elephant walk
EXTD=
EXTT0=
EXTT1=
EXTT2=
EXTT3=
EXTT4=
EXTT5=
EXTT6=
EXTT7=
EXTT8=
EXTT9=
EXTT10=
EXTT11=
EXTT12=
EXTT13=
PLAYORDER=
